<?xml version="1.0" standalone="no"?><!DOCTYPE svg PUBLIC "-//W3C//DTD SVG 1.1//EN" "http://www.w3.org/Graphics/SVG/1.1/DTD/svg11.dtd"><svg t="1582250283256" class="icon" viewBox="0 0 1024 1024" version="1.1" xmlns="http://www.w3.org/2000/svg" p-id="4217" xmlns:xlink="http://www.w3.org/1999/xlink" width="200" height="200"><defs><style type="text/css"></style></defs><path d="M886.976 387.904l-362.667-256a21.355 21.355 0 0 0-24.618 0l-362.667 256a21.376 21.376 0 0 0-9.024 17.43v469.333A21.333 21.333 0 0 0 149.333 896H384a21.333 21.333 0 0 0 21.333-21.333v-256h213.334v256A21.333 21.333 0 0 0 640 896h234.667A21.333 21.333 0 0 0 896 874.667V405.333a21.376 21.376 0 0 0-9.024-17.429z" p-id="4218"></path></svg>